<mxfile host="drawio-plugin" modified="2024-07-18T07:32:30.295Z" agent="Mozilla/5.0 (Windows NT 10.0; Win64; x64) AppleWebKit/537.36 (KHTML, like Gecko) Chrome/122.0.0.0 Safari/537.36" etag="oYjcfHeTUbri13qEh_XB" version="22.1.22" type="embed">
  <diagram name="Page-1" id="c4acf3e9-155e-7222-9cf6-157b1a14988f">
    <mxGraphModel dx="1203" dy="1100" grid="1" gridSize="10" guides="1" tooltips="1" connect="1" arrows="1" fold="1" page="1" pageScale="1" pageWidth="850" pageHeight="1100" background="none" math="0" shadow="0">
      <root>
        <mxCell id="0" />
        <mxCell id="1" parent="0" />
        <mxCell id="13" value="&lt;p style=&quot;margin: 4px 0px 0px; text-align: center; font-size: 14px;&quot;&gt;&lt;font style=&quot;font-size: 14px;&quot;&gt;&lt;i style=&quot;&quot;&gt;&amp;lt;&amp;lt;Class&amp;gt;&amp;gt;&lt;/i&gt;&lt;br&gt;&lt;b style=&quot;&quot;&gt;Main&lt;/b&gt;&lt;br&gt;&lt;/font&gt;&lt;/p&gt;&lt;hr style=&quot;font-size: 14px;&quot; size=&quot;1&quot;&gt;&lt;p style=&quot;margin: 0px 0px 0px 4px; font-size: 14px;&quot;&gt;&lt;font style=&quot;font-size: 14px;&quot;&gt;+ main(String[]): void&lt;/font&gt;&lt;br&gt;&lt;/p&gt;" style="verticalAlign=top;align=left;overflow=fill;fontSize=12;fontFamily=Helvetica;html=1;rounded=0;shadow=0;comic=0;labelBackgroundColor=none;strokeWidth=1" parent="1" vertex="1">
          <mxGeometry x="550" y="50" width="140" height="80" as="geometry" />
        </mxCell>
        <mxCell id="14" value="&lt;p style=&quot;margin: 4px 0px 0px; text-align: center; font-size: 14px;&quot;&gt;&lt;font style=&quot;font-size: 14px;&quot;&gt;&lt;i style=&quot;&quot;&gt;&amp;lt;&amp;lt;Interface&amp;gt;&amp;gt;&lt;/i&gt;&lt;/font&gt;&lt;/p&gt;&lt;p style=&quot;margin: 4px 0px 0px; text-align: center;&quot;&gt;&lt;b&gt;&lt;i&gt;Container&amp;nbsp;&lt;/i&gt;&lt;/b&gt;&lt;br&gt;&lt;/p&gt;&lt;hr style=&quot;font-size: 14px;&quot; size=&quot;1&quot;&gt;&lt;p style=&quot;margin: 0px 0px 0px 4px; font-size: 14px;&quot;&gt;&lt;font style=&quot;font-size: 14px;&quot;&gt;+ getIterator(): Iterator&lt;/font&gt;&lt;br&gt;&lt;/p&gt;" style="verticalAlign=top;align=left;overflow=fill;fontSize=12;fontFamily=Helvetica;html=1;rounded=0;shadow=0;comic=0;labelBackgroundColor=none;strokeWidth=1" parent="1" vertex="1">
          <mxGeometry x="250" y="50" width="150" height="80" as="geometry" />
        </mxCell>
        <mxCell id="53" value="" style="endArrow=open;endSize=12;dashed=1;html=1;rounded=0;exitX=0.75;exitY=1;exitDx=0;exitDy=0;entryX=0.5;entryY=0;entryDx=0;entryDy=0;" parent="1" source="13" target="63" edge="1">
          <mxGeometry width="160" relative="1" as="geometry">
            <mxPoint x="570" y="150" as="sourcePoint" />
            <mxPoint x="630" y="230" as="targetPoint" />
            <Array as="points">
              <mxPoint x="680" y="350" />
            </Array>
          </mxGeometry>
        </mxCell>
        <mxCell id="54" value="implements" style="endArrow=block;dashed=1;endFill=0;endSize=12;html=1;rounded=0;exitX=0.5;exitY=0;exitDx=0;exitDy=0;entryX=0.75;entryY=1;entryDx=0;entryDy=0;" parent="1" source="55" target="14" edge="1">
          <mxGeometry width="160" relative="1" as="geometry">
            <mxPoint x="410" y="200" as="sourcePoint" />
            <mxPoint x="290" y="170" as="targetPoint" />
          </mxGeometry>
        </mxCell>
        <mxCell id="55" value="&lt;p style=&quot;margin: 4px 0px 0px; text-align: center; font-size: 14px;&quot;&gt;&lt;font style=&quot;font-size: 14px;&quot;&gt;&lt;i style=&quot;&quot;&gt;&amp;lt;&amp;lt;Class&amp;gt;&amp;gt;&lt;/i&gt;&lt;/font&gt;&lt;/p&gt;&lt;div style=&quot;text-align: center;&quot;&gt;&lt;b&gt;BankRepo&amp;nbsp;&lt;/b&gt;&lt;/div&gt;&lt;hr style=&quot;font-size: 14px;&quot; size=&quot;1&quot;&gt;&lt;p style=&quot;margin: 0px 0px 0px 4px; font-size: 14px;&quot;&gt;&lt;/p&gt;&amp;nbsp;- dbOfBankAcc: List&amp;lt;BankAccount&amp;gt;&lt;hr style=&quot;font-size: 14px;&quot; size=&quot;1&quot;&gt;&lt;p style=&quot;margin: 0px 0px 0px 4px;&quot;&gt;+ getIterator(): Iterator&lt;/p&gt;&lt;p style=&quot;margin: 0px 0px 0px 4px;&quot;&gt;+ addBankAccount(bankAccount: BankAccount): BankAccount&lt;/p&gt;" style="verticalAlign=top;align=left;overflow=fill;fontSize=12;fontFamily=Helvetica;html=1;rounded=0;shadow=0;comic=0;labelBackgroundColor=none;strokeWidth=1" parent="1" vertex="1">
          <mxGeometry x="250" y="220" width="350" height="120" as="geometry" />
        </mxCell>
        <mxCell id="60" value="" style="endArrow=diamondThin;endFill=0;endSize=24;html=1;rounded=0;entryX=0.5;entryY=1;entryDx=0;entryDy=0;exitX=0.25;exitY=0;exitDx=0;exitDy=0;" parent="1" source="63" target="55" edge="1">
          <mxGeometry width="160" relative="1" as="geometry">
            <mxPoint x="488.12" y="506" as="sourcePoint" />
            <mxPoint x="300.0000000000001" y="440" as="targetPoint" />
          </mxGeometry>
        </mxCell>
        <mxCell id="61" value="&lt;p style=&quot;margin: 4px 0px 0px; text-align: center; font-size: 14px;&quot;&gt;&lt;font style=&quot;font-size: 14px;&quot;&gt;&lt;i style=&quot;&quot;&gt;&amp;lt;&amp;lt;Interface&amp;gt;&amp;gt;&lt;/i&gt;&lt;/font&gt;&lt;/p&gt;&lt;div style=&quot;text-align: center;&quot;&gt;&lt;b&gt;&lt;i&gt;&lt;font style=&quot;font-size: 13px;&quot;&gt;Iterator&amp;nbsp;&lt;/font&gt;&lt;/i&gt;&lt;/b&gt;&lt;/div&gt;&lt;hr style=&quot;font-size: 14px;&quot; size=&quot;1&quot;&gt;&lt;p style=&quot;margin: 0px 0px 0px 4px;&quot;&gt;+ hasNext(): boolean&lt;/p&gt;&lt;p style=&quot;margin: 0px 0px 0px 4px;&quot;&gt;&lt;span style=&quot;font-size: 14px;&quot;&gt;+ next(): Object&lt;/span&gt;&lt;/p&gt;" style="verticalAlign=top;align=left;overflow=fill;fontSize=12;fontFamily=Helvetica;html=1;rounded=0;shadow=0;comic=0;labelBackgroundColor=none;strokeWidth=1" vertex="1" parent="1">
          <mxGeometry x="50" y="235" width="120" height="90" as="geometry" />
        </mxCell>
        <mxCell id="62" value="&lt;p style=&quot;margin: 4px 0px 0px; text-align: center; font-size: 14px;&quot;&gt;&lt;font style=&quot;font-size: 14px;&quot;&gt;&lt;i style=&quot;&quot;&gt;&amp;lt;&amp;lt;Class&amp;gt;&amp;gt;&lt;/i&gt;&lt;/font&gt;&lt;/p&gt;&lt;div style=&quot;text-align: center;&quot;&gt;&lt;b&gt;AccountIterator&amp;nbsp;&lt;/b&gt;&lt;/div&gt;&lt;hr style=&quot;font-size: 14px;&quot; size=&quot;1&quot;&gt;&lt;p style=&quot;margin: 0px 0px 0px 4px; font-size: 14px;&quot;&gt;&lt;span style=&quot;background-color: initial; font-size: 12px;&quot;&gt;- index: int&lt;/span&gt;&lt;/p&gt;&lt;hr style=&quot;font-size: 14px;&quot; size=&quot;1&quot;&gt;&lt;p style=&quot;margin: 0px 0px 0px 4px;&quot;&gt;+ hasNext(): boolean&lt;/p&gt;&lt;p style=&quot;margin: 0px 0px 0px 4px;&quot;&gt;+ next(): Object&lt;/p&gt;" style="verticalAlign=top;align=left;overflow=fill;fontSize=12;fontFamily=Helvetica;html=1;rounded=0;shadow=0;comic=0;labelBackgroundColor=none;strokeWidth=1" vertex="1" parent="1">
          <mxGeometry x="110" y="500" width="120" height="120" as="geometry" />
        </mxCell>
        <mxCell id="63" value="&lt;p style=&quot;margin: 4px 0px 0px; text-align: center; font-size: 14px;&quot;&gt;&lt;font style=&quot;font-size: 14px;&quot;&gt;&lt;i style=&quot;&quot;&gt;&amp;lt;&amp;lt;Class&amp;gt;&amp;gt;&lt;/i&gt;&lt;/font&gt;&lt;/p&gt;&lt;div style=&quot;text-align: center;&quot;&gt;&lt;b&gt;BankAccount&amp;nbsp;&lt;/b&gt;&lt;/div&gt;&lt;hr style=&quot;font-size: 14px;&quot; size=&quot;1&quot;&gt;&lt;p style=&quot;margin: 0px 0px 0px 4px;&quot;&gt;&lt;span style=&quot;background-color: initial;&quot;&gt;- numberOfBank: UUID&lt;/span&gt;&lt;span style=&quot;background-color: initial;&quot;&gt;&lt;br&gt;&lt;/span&gt;&lt;/p&gt;&lt;p style=&quot;margin: 0px 0px 0px 4px;&quot;&gt;- balance: double&lt;/p&gt;&lt;p style=&quot;margin: 0px 0px 0px 4px;&quot;&gt;- name: String&lt;/p&gt;&lt;hr style=&quot;font-size: 14px;&quot; size=&quot;1&quot;&gt;&lt;p style=&quot;margin: 0px 0px 0px 4px;&quot;&gt;+ BankAccount(balance: double, name: String)&lt;/p&gt;&lt;p style=&quot;margin: 0px 0px 0px 4px;&quot;&gt;+ getNumberOfBank(): UUID&lt;/p&gt;&lt;p style=&quot;margin: 0px 0px 0px 4px;&quot;&gt;+ setNumberOfBank(numberOfBank: UUID): void&lt;/p&gt;&lt;p style=&quot;margin: 0px 0px 0px 4px;&quot;&gt;+ getBalance(): double&lt;/p&gt;&lt;p style=&quot;margin: 0px 0px 0px 4px;&quot;&gt;+ setBalance(balance: double): void&lt;/p&gt;&lt;p style=&quot;margin: 0px 0px 0px 4px;&quot;&gt;+ getName(): String&lt;/p&gt;&lt;p style=&quot;margin: 0px 0px 0px 4px;&quot;&gt;+ setName(name: String): void&lt;/p&gt;&lt;p style=&quot;margin: 0px 0px 0px 4px;&quot;&gt;+ toString(): String&lt;/p&gt;" style="verticalAlign=top;align=left;overflow=fill;fontSize=12;fontFamily=Helvetica;html=1;rounded=0;shadow=0;comic=0;labelBackgroundColor=none;strokeWidth=1" vertex="1" parent="1">
          <mxGeometry x="430" y="530" width="280" height="230" as="geometry" />
        </mxCell>
        <mxCell id="65" value="" style="endArrow=open;endSize=12;dashed=1;html=1;rounded=0;exitX=0.25;exitY=1;exitDx=0;exitDy=0;entryX=0.75;entryY=0;entryDx=0;entryDy=0;" edge="1" parent="1" source="13" target="55">
          <mxGeometry width="160" relative="1" as="geometry">
            <mxPoint x="665" y="140" as="sourcePoint" />
            <mxPoint x="580" y="540" as="targetPoint" />
            <Array as="points" />
          </mxGeometry>
        </mxCell>
        <mxCell id="66" value="implements" style="endArrow=block;dashed=1;endFill=0;endSize=12;html=1;rounded=0;exitX=0.5;exitY=0;exitDx=0;exitDy=0;entryX=0.25;entryY=1;entryDx=0;entryDy=0;" edge="1" parent="1" source="62" target="61">
          <mxGeometry width="160" relative="1" as="geometry">
            <mxPoint x="435" y="230" as="sourcePoint" />
            <mxPoint x="373" y="140" as="targetPoint" />
          </mxGeometry>
        </mxCell>
        <mxCell id="67" value="" style="endArrow=open;startArrow=circlePlus;endFill=0;startFill=0;endSize=8;html=1;rounded=0;exitX=0.25;exitY=1;exitDx=0;exitDy=0;entryX=1;entryY=0;entryDx=0;entryDy=0;" edge="1" parent="1" source="55" target="62">
          <mxGeometry width="160" relative="1" as="geometry">
            <mxPoint x="-190" y="570" as="sourcePoint" />
            <mxPoint x="-30" y="570" as="targetPoint" />
          </mxGeometry>
        </mxCell>
      </root>
    </mxGraphModel>
  </diagram>
</mxfile>
